M48
; DRILL file {KiCad 9.0.4} date 2025-10-23T01:11:09+0530
; FORMAT={-:-/ absolute / metric / decimal}
; #@! TF.CreationDate,2025-10-23T01:11:09+05:30
; #@! TF.GenerationSoftware,Kicad,Pcbnew,9.0.4
; #@! TF.FileFunction,Plated,1,2,PTH
FMAT,2
METRIC
; #@! TA.AperFunction,Plated,PTH,ComponentDrill
T1C0.500
; #@! TA.AperFunction,Plated,PTH,ComponentDrill
T2C0.889
; #@! TA.AperFunction,Plated,PTH,ComponentDrill
T3C1.000
; #@! TA.AperFunction,Plated,PTH,ComponentDrill
T4C1.500
%
G90
G05
T1
X145.256Y-90.869
X145.256Y-91.869
X145.256Y-92.869
X145.256Y-93.869
T2
X158.63Y-80.58
X158.63Y-83.12
X158.63Y-85.66
X158.63Y-88.2
X158.63Y-90.74
X158.63Y-93.28
X158.63Y-95.82
X173.87Y-80.58
X173.87Y-83.12
X173.87Y-85.66
X173.87Y-88.2
X173.87Y-90.74
X173.87Y-93.28
X173.87Y-95.82
T3
X120.766Y-89.5
X120.766Y-92.0
X120.766Y-94.5
X135.266Y-89.5
X135.266Y-94.5
T4
X124.269Y-111.76
X124.269Y-130.81
X130.619Y-109.22
X130.619Y-128.27
X143.32Y-111.76
X143.32Y-130.81
X149.669Y-109.22
X149.669Y-128.27
X162.369Y-111.76
X162.369Y-130.81
X168.719Y-109.22
X168.719Y-128.27
T4
G00X127.616Y-86.4
M15
G01X128.916Y-86.4
M16
G05
G00X127.616Y-97.6
M15
G01X128.916Y-97.6
M16
G05
M30
